# AST/ASF file generated using VICON BodyLanguage
# -----------------------------------------------
:version 1.10
:name VICON
:units
  mass 1.0
  length 0.45
  angle deg
:documentation
   .ast/.asf automatically generated from VICON data using
   VICON BodyBuilder and BodyLanguage model FoxedUp or BRILLIANT.MOD
:root
   order TX TY TZ RX RY RZ
   axis XYZ
   position 0 0 0  
   orientation 0 0 0 
:bonedata
  begin
     id 1 
     name lhipjoint
     direction 0.710188 -0.616876 0.339259 
     length 2.5669 
     axis 0 0 0  XYZ
  end
  begin
     id 2 
     name lfemur
     direction 0.34202 -0.939693 0  
     length 7.12796  
     axis 0 0 20  XYZ
    dof rx ry rz
    limits (-160.0 20.0)
           (-70.0 70.0)
           (-60.0 70.0)
  end
  begin
     id 3 
     name ltibia
     direction 0.34202 -0.939693 0   
     length 7.58108   
     axis 0 0 20   XYZ
    dof rx
    limits (-10.0 170.0)
  end
  begin
     id 4 
     name lfoot
     direction 0.0669471 -0.183936 0.980656   
     length 2.17365   
     axis -90 7.62852e-016 20   XYZ
    dof rx rz
    limits (-45.0 90.0)
           (-70.0 20.0)
  end
  begin
     id 5 
     name ltoes
     direction 1.53508e-011 -4.21705e-011 1   
     length 1.09427   
     axis -90 7.62852e-016 20   XYZ
    dof rx
    limits (-90.0 20.0)
  end
  begin
     id 6 
     name rhipjoint
     direction -0.700191 -0.625589 0.34405   
     length 2.53115  
     axis 0 0 0  XYZ 
  end
  begin
     id 7 
     name rfemur
     direction -0.34202 -0.939693 0   
     length 7.33006   
     axis 0 0 -20   XYZ
    dof rx ry rz
    limits (-160.0 20.0)
           (-70.0 70.0)
           (-70.0 60.0)
  end
  begin
     id 8 
     name rtibia
     direction -0.34202 -0.939693 0   
     length 7.64926   
     axis 0 0 -20   XYZ
    dof rx
    limits (-10.0 170.0)
 end
 begin
     id 9 
     name rfoot
     direction -0.0688927 -0.189281 0.979503   
     length 2.20493  
     axis -90 -7.62852e-016 -20   XYZ
    dof rx rz
    limits (-45.0 90.0)
           (-20.0 70.0)
  end
  begin
     id 10 
     name rtoes
     direction -1.53567e-011 -4.21933e-011 1   
     length 1.10919   
     axis -90 -7.62852e-016 -20   XYZ
    dof rx
    limits (-90.0 20.0)
  end
  begin
     id 11 
     name lowerback
     direction -0.0167868 0.989873 -0.140959   
     length 2.14596   
     axis 0 0 0   XYZ
    dof rx ry rz
    limits (-20.0 45.0)
           (-30.0 30.0)
           (-30.0 30.0)
  end
  begin
     id 12 
     name upperback
     direction 0.0129109 0.998033 0.0613525   
     length 2.10457   
     axis 0 0 0   XYZ
    dof rx ry rz
    limits (-20.0 45.0)
           (-30.0 30.0)
           (-30.0 30.0)
  end
  begin
     id 13 
     name thorax
     direction 0.0177047 0.991119 0.131797   
     length 2.17652   
     axis 0 0 0   XYZ
    dof rx ry rz
    limits (-20.0 45.0)
           (-30.0 30.0)
           (-30.0 30.0)
  end
  begin
     id 14 
     name lowerneck
     direction -0.0336893 0.997548 0.0613464   
     length 1.8912   
     axis 0 0 0   XYZ
    dof rx ry rz
    limits (-20.0 45.0)
           (-30.0 30.0)
           (-30.0 30.0)
  end
  begin
     id 15 
     name upperneck
     direction 0.0435909 0.997179 -0.0611028   
     length 1.8829   
     axis 0 0 0   XYZ
    dof rx ry rz
    limits (-20.0 45.0)
           (-30.0 30.0)
           (-30.0 30.0)
  end
  begin
     id 16
     name head
     direction 0.0175076 0.999444 -0.0283782  
     length 1.93197  
     axis 0 0 0   XYZ
    dof rx ry rz
    limits (-20.0 45.0)
           (-30.0 30.0)
           (-30.0 30.0)
  end
  begin
     id 17 
     name lclavicle
     direction 0.919164 0.389875 0.0559876  
     length 3.60004  
     axis 0 0 0   XYZ
    dof ry rz
    limits (-20.0 10.0)
           (0.0 20.0)
  end
  begin
     id 18 
     name lhumerus
     direction 1 -4.48958e-011 6.89191e-027   
     length 5.43301   
     axis 180 -30 -90   XYZ
    dof rx ry rz
    limits (-60.0 90.0)
           (-90.0 90.0)
           (-90.0 90.0)
  end
  begin
     id 19
     name lradius
     direction 1 -4.4897e-011 3.24727e-027   
     length 3.15936   
     axis 180 -30 -90   XYZ
    dof rx
    limits (-10.0 170.0)
  end
  begin
     id 20
     name lwrist
     direction 1 -4.4897e-011 9.00228e-027   
     length 1.57968   
     axis -6.29373e-015 90 90   XYZ
    dof ry
    limits (-180.0 0.0)
 end
  begin
     id 21 
     name lhand
     direction 1 -4.48968e-011 1.80042e-026   
     length 0.712827   
     axis -1.14882e-014 90 90   XYZ
    dof rx rz
    limits (-90.0 90.0)
           (-45.0 45.0)
  end
  begin
     id 22 
     name lfingers
     direction 1 -4.49019e-011 3.60267e-026   
     length 0.574699   
     axis -2.29769e-014 90 90   XYZ
    dof rx
    limits (0.0 90.0)
  end
  begin
     id 23
     name lthumb
     direction 0.707107 -6.3498e-011 0.707107   
     length 0.825157   
     axis -90 45 5.37419e-014   XYZ
    dof rx rz
    limits (-45.0 45.0)
           (-45.0 45.0)
  end
  begin
     id 24 
     name rclavicle
     direction -0.890334 0.455305 -0.00132111   
     length 3.51494  
     axis 0 0 0   XYZ 
    dof ry rz
    limits (-10.0 20.0)
           (-20.0 0.0)
  end
  begin
     id 25 
     name rhumerus
     direction -1 -4.48967e-011 5.07175e-028  
     length 5.34194   
     axis 180 30 90   XYZ
    dof rx ry rz
    limits (-90.0 60.0)
           (-90.0 90.0)
           (-90.0 90.0)
  end
  begin
     id 26 
     name rradius
     direction -1 -4.48955e-011 3.30467e-027   
     length 3.19351   
     axis 180 30 90   XYZ
    dof rx
    limits (-10.0 170.0)
  end
  begin
     id 27 
     name rwrist
     direction -1 -4.48968e-011 9.00208e-027   
     length 1.59676   
     axis -6.29373e-015 -90 -90   XYZ
    dof ry
    limits (-180.0 0.0)
  end
  begin
     id 28
     name rhand
     direction -1 -4.49e-011 1.80099e-026   
     length 0.743862   
     axis -1.14882e-014 -90 -90   XYZ
    dof rx rz
    limits (-90.0 90.0)
           (-45.0 45.0)
  end
  begin
     id 29
     name rfingers
     direction -1 -4.49009e-011 3.6023e-026   
     length 0.599721   
     axis -2.29769e-014 -90 -90   XYZ
    dof rx
    limits (0.0 90.0)
  end
  begin
     id 30
     name rthumb
     direction -0.707107 -6.35025e-011 0.707107   
     length 0.861083   
     axis -90 -45 -5.37419e-014   XYZ
    dof rx rz
    limits (-45.0 45.0)
           (-45.0 45.0)
  end
:hierarchy
  begin
    root lhipjoint rhipjoint lowerback
    lhipjoint lfemur
    lfemur ltibia
    ltibia lfoot
    lfoot ltoes
    rhipjoint rfemur
    rfemur rtibia
    rtibia rfoot
    rfoot rtoes
    lowerback upperback
    upperback thorax
    thorax lowerneck lclavicle rclavicle
    lowerneck upperneck
    upperneck head
    lclavicle lhumerus
    lhumerus lradius
    lradius lwrist
    lwrist lhand lthumb
    lhand lfingers
    rclavicle rhumerus
    rhumerus rradius
    rradius rwrist
    rwrist rhand rthumb
    rhand rfingers
  end

#!OML:ASF H:\Martial Arts Walks\Project 1\Capture day 1\Session 1\male.ASF
:FULLY-SPECIFIED
:DEGREES
83
root -3.02457 16.04 -39.6364 4.61888 -15.0461 -9.27679
lowerback 8.391 0.90932 5.0844
upperback -1.2113 1.92739 3.25176
thorax -5.93639 0.830655 0.290211
lowerneck 0.446054 -9.92863 -11.3303
upperneck 11.0544 -13.9814 8.53871
head 4.63904 -7.02641 3.73964
rclavicle -8.97016e-015 -5.34234e-015
rhumerus -36.6622 5.78001 -80.2975
rradius 31.4959
rwrist 2.3321
rhand -15.8234 -34.7408
rfingers 7.12502
rthumb 10.3705 -64.4651
lclavicle -8.97016e-015 -5.34234e-015
lhumerus -27.9742 -2.98497 83.3771
lradius 35.6434
lwrist -12.3505
lhand -24.9191 19.3524
lfingers 7.12502
lthumb 1.58967 49.3263
rfemur -7.3381 -4.42652 28.3816
rtibia 43.3005
rfoot -25.5391 -24.1836
rtoes -18.7855
lfemur -49.0688 6.69869 -0.0791939
ltibia 50.887
lfoot 7.27401 -10.2408
ltoes -3.99184
84
root -3.02377 16.0386 -39.6167 4.51851 -15.1617 -9.2461
lowerback 8.41483 0.97064 5.1512
upperback -1.16656 2.01343 3.22216
thorax -5.89676 0.871409 0.210362
lowerneck 0.0513073 -9.76402 -11.0277
upperneck 11.5662 -13.7257 8.23312
head 4.79279 -6.89045 3.59218
rclavicle -7.33578e-014 -2.7159e-014
rhumerus -36.536 5.98366 -80.3535
rradius 31.6462
rwrist 2.48857
rhand -15.5044 -34.8775
rfingers 7.12502
rthumb 10.6783 -64.5861
lclavicle -7.33578e-014 -2.7159e-014
lhumerus -27.9818 -2.9637 83.3552
lradius 35.7626
lwrist -12.2618
lhand -24.9882 19.4638
lfingers 7.12502
lthumb 1.52292 49.4381
rfemur -7.10419 -4.33364 28.3044
rtibia 43.2108
rfoot -25.615 -24.1511
rtoes -18.7265
lfemur -49.1737 6.87126 -0.00902004
ltibia 50.6621
lfoot 8.11408 -9.79354
ltoes -3.3014
85
root -3.0221 16.0351 -39.5946 4.40125 -15.2647 -9.17216
lowerback 8.4834 0.977693 5.11048
upperback -1.1795 2.02495 3.22587
thorax -5.95055 0.87723 0.234096
lowerneck -0.189403 -9.52173 -10.7354
upperneck 11.9882 -13.3654 7.86298
head 4.88171 -6.71162 3.44534
rclavicle 1.24862e-015 -9.19379e-015
rhumerus -36.4776 6.35264 -80.4473
rradius 31.7899
rwrist 2.65309
rhand -15.2541 -35.1277
rfingers 7.12502
rthumb 10.9197 -64.8238
lclavicle 1.24862e-015 -9.19379e-015
lhumerus -28.1852 -2.74313 83.3024
lradius 35.9194
lwrist -12.1426
lhand -24.9144 19.6055
lfingers 7.12502
lthumb 1.59423 49.5792
rfemur -6.86128 -4.2242 28.1912
rtibia 43.1259
rfoot -25.5986 -24.2371
rtoes -18.8804
lfemur -49.2093 6.94585 0.0547928
ltibia 50.2713
lfoot 8.91833 -8.70333
ltoes -2.43894
86
root -3.02113 16.0324 -39.5681 4.26233 -15.4358 -9.09576
lowerback 8.51244 1.01643 5.07134
upperback -1.14384 2.07235 3.22345
thorax -5.92895 0.902581 0.246669
lowerneck -0.343949 -9.28113 -10.4414
upperneck 12.2091 -13.0056 7.52121
head 4.89883 -6.53452 3.31457
rclavicle 2.76435e-016 3.29486e-014
rhumerus -36.3888 6.67307 -80.5173
rradius 31.9632
rwrist 2.79745
rhand -15.0399 -35.5553
rfingers 7.12502
rthumb 11.1263 -65.2404
lclavicle 2.76435e-016 3.29486e-014
lhumerus -28.3233 -2.58088 83.2454
lradius 36.1233
lwrist -11.7307
lhand -24.901 19.873
lfingers 7.12502
lthumb 1.6072 49.8467
rfemur -6.58047 -4.03473 28.069
rtibia 43.0343
rfoot -25.5941 -24.297
rtoes -18.9756
lfemur -49.1521 7.0603 0.109431
ltibia 49.7596
lfoot 9.64569 -7.17507
ltoes -1.71108
87
root -3.02101 16.033 -39.5437 4.13074 -15.529 -8.97651
lowerback 8.5672 1.0315 4.9854
upperback -1.1224 2.08563 3.21093
thorax -5.93923 0.911798 0.27869
lowerneck -0.336408 -9.10459 -10.2849
upperneck 12.2996 -12.7385 7.21516
head 4.87108 -6.41132 3.21773
rclavicle -3.61602e-014 4.79568e-014
rhumerus -36.2923 6.99854 -80.597
rradius 32.155
rwrist 2.8632
rhand -14.8981 -35.6605
rfingers 7.12502
rthumb 11.263 -65.3381
lclavicle -3.61602e-014 4.79568e-014
lhumerus -28.4624 -2.41994 83.1825
lradius 36.2417
lwrist -11.5522
lhand -25.11 19.5588
lfingers 7.12502
lthumb 1.40534 49.534
rfemur -6.32418 -3.93688 27.9149
rtibia 42.9325
rfoot -25.4968 -24.4298
rtoes -19.3036
lfemur -49.0674 7.0955 0.12281
ltibia 49.1429
lfoot 10.3946 -5.54457
ltoes -1.26432
88
root -3.01789 16.0283 -39.508 3.99181 -15.7566 -8.90295
lowerback 8.51079 1.10114 4.99897
upperback -1.0399 2.16898 3.18579
thorax -5.81582 0.955196 0.23529
lowerneck -0.41942 -8.85185 -10.0042
upperneck 12.3162 -12.3641 6.93758
head 4.82095 -6.22666 3.11549
rclavicle -6.13033e-014 -3.06128e-014
rhumerus -36.2329 7.22573 -80.6269
rradius 32.4095
rwrist 2.9054
rhand -14.9882 -35.3754
rfingers 7.12502
rthumb 11.1761 -65.0578
lclavicle -6.13033e-014 -3.06128e-014
lhumerus -28.5986 -2.32314 83.1325
lradius 36.3285
lwrist -11.563
lhand -25.2254 19.1795
lfingers 7.12502
lthumb 1.29386 49.1553
rfemur -6.00633 -3.68844 27.7717
rtibia 42.8262
rfoot -25.4842 -24.5305
rtoes -19.4539
lfemur -48.894 7.15553 0.245192
ltibia 48.4596
lfoot 11.2126 -3.60319
ltoes -0.240965
89
root -3.01519 16.0231 -39.4722 3.82739 -15.8108 -8.83955
lowerback 8.52552 1.08682 4.99043
upperback -1.00977 2.149 3.1996
thorax -5.7938 0.946568 0.256953
lowerneck -0.561959 -8.3351 -9.82904
upperneck 12.5084 -11.6631 6.90082
head 4.8283 -5.87459 3.12063
rclavicle -1.9748e-014 -5.71506e-015
rhumerus -36.2088 7.50442 -80.654
rradius 32.6488
rwrist 2.98457
rhand -14.9168 -35.375
rfingers 7.12502
rthumb 11.245 -65.0536
lclavicle -1.9748e-014 -5.71506e-015
lhumerus -28.8937 -2.12479 83.0908
lradius 36.4601
lwrist -11.5857
lhand -25.3247 19.3442
lfingers 7.12502
lthumb 1.19792 49.3206
rfemur -5.6397 -3.51775 27.6763
rtibia 42.7103
rfoot -25.4365 -24.7316
rtoes -19.6228
lfemur -48.7515 7.07532 0.367806
ltibia 47.7218
lfoot 12.0846 -1.87664
ltoes 0.11983
90
root -3.01189 16.015 -39.434 3.66054 -15.88 -8.82571
lowerback 8.58315 1.08279 5.01251
upperback -0.97185 2.14974 3.23279
thorax -5.78711 0.947148 0.278258
lowerneck -0.613299 -7.92874 -9.78636
upperneck 12.6214 -11.0942 6.74712
head 4.81084 -5.60037 3.10454
rclavicle -1.83317e-014 -3.89618e-014
rhumerus -36.1664 7.63556 -80.6232
rradius 32.914
rwrist 3.18964
rhand -14.8441 -35.079
rfingers 7.12502
rthumb 11.3151 -64.7538
lclavicle -1.83317e-014 -3.89618e-014
lhumerus -29.1571 -1.94058 83.0553
lradius 36.7015
lwrist -11.1479
lhand -25.0171 20.048
lfingers 7.12502
lthumb 1.49502 50.0225
rfemur -5.24867 -3.36161 27.6187
rtibia 42.5799
rfoot -25.3875 -24.9175
rtoes -19.7852
lfemur -48.5801 6.94335 0.596051
ltibia 46.9364
lfoot 12.9364 -0.0144351
ltoes 1.56399
91
root -3.00834 16.0067 -39.396 3.64996 -16.1178 -8.9398
lowerback 8.5767 1.12748 5.09221
upperback -0.969033 2.2212 3.31492
thorax -5.77915 0.981074 0.310623
lowerneck -0.304199 -7.47989 -9.7594
upperneck 12.5319 -10.4843 6.56071
head 4.66806 -5.31573 3.10029
rclavicle -1.125e-014 -1.69961e-014
rhumerus -36.1732 7.9411 -80.6278
rradius 33.2389
rwrist 3.14634
rhand -14.8927 -35.2221
rfingers 7.12502
rthumb 11.2682 -64.8994
lclavicle -1.125e-014 -1.69961e-014
lhumerus -29.4329 -1.76875 83.0286
lradius 36.9155
lwrist -10.6693
lhand -25.0734 20.2558
lfingers 7.12502
lthumb 1.44069 50.2306
rfemur -5.00047 -3.07899 27.6722
rtibia 42.4401
rfoot -25.2764 -25.0482
rtoes -20.0508
lfemur -48.4742 6.97253 0.987698
ltibia 46.1114
lfoot 13.9735 1.31772
ltoes 1.71936
92
root -3.0047 15.9964 -39.3485 3.46614 -15.9588 -8.97233
lowerback 8.62235 1.07283 5.17838
upperback -0.905528 2.15947 3.36181
thorax -5.73888 0.950027 0.319136
lowerneck -0.896994 -7.14034 -9.40169
upperneck 12.9226 -9.9568 6.17028
head 4.80468 -5.04831 2.93177
rclavicle -2.78112e-014 -1.70955e-014
rhumerus -36.1848 7.95224 -80.5257
rradius 33.6055
rwrist 3.11295
rhand -14.6771 -35.6125
rfingers 7.12502
rthumb 11.4762 -65.2784
lclavicle -2.78112e-014 -1.70955e-014
lhumerus -29.6496 -1.69645 83.0404
lradius 37.0525
lwrist -10.3839
lhand -26.9831 17.9066
lfingers 7.12502
lthumb -0.403798 47.8859
rfemur -4.50336 -3.04986 27.6901
rtibia 42.2618
rfoot -25.3181 -25.2644
rtoes -20.2038
lfemur -48.3874 6.58964 1.31181
ltibia 45.252
lfoot 15.1982 2.17498
ltoes 1.57467
93
root -2.99827 15.9838 -39.2994 3.38729 -15.9494 -9.06086
lowerback 8.60991 1.05261 5.31325
upperback -0.884625 2.14758 3.42611
thorax -5.70832 0.941609 0.313264
lowerneck -0.974266 -7.01286 -9.05999
upperneck 12.8547 -9.77818 6.06493
head 4.75942 -4.94858 2.85617
rclavicle -5.10318e-014 -1.3418e-014
rhumerus -36.203 8.03777 -80.4511
rradius 33.9137
rwrist 3.10751
rhand -14.7864 -35.1501
rfingers 7.12502
rthumb 11.3708 -64.8219
lclavicle -5.10318e-014 -1.3418e-014
lhumerus -29.9692 -1.58328 83.0453
lradius 37.2501
lwrist -10.085
lhand -26.9704 18.288
lfingers 7.12502
lthumb -0.391518 48.2674
rfemur -4.12504 -2.95361 27.7187
rtibia 42.109
rfoot -25.3414 -25.4257
rtoes -20.2195
lfemur -48.3471 6.32464 1.70454
ltibia 44.3762
lfoot 16.578 2.68593
ltoes 1.94761
94
root -2.99395 15.9743 -39.2468 3.27554 -15.9515 -9.15593
lowerback 8.63032 1.08363 5.48323
upperback -0.828266 2.20553 3.44635
thorax -5.65357 0.966714 0.232069
lowerneck -0.783528 -6.75531 -8.76554
upperneck 12.6198 -9.42581 5.89547
head 4.60526 -4.77359 2.79129
rclavicle -4.22293e-014 -3.12092e-014
rhumerus -36.3063 7.93044 -80.3577
rradius 34.3407
rwrist 2.91999
rhand -14.6941 -35.5742
rfingers 7.12502
rthumb 11.4598 -65.2409
lclavicle -4.22293e-014 -3.12092e-014
lhumerus -30.157 -1.72568 83.0573
lradius 37.414
lwrist -9.56014
lhand -26.6741 18.6631
lfingers 7.12502
lthumb -0.105332 48.6428
rfemur -3.69759 -2.87944 27.7572
rtibia 41.9456
rfoot -25.2842 -25.6568
rtoes -20.5515
lfemur -48.2485 6.05618 2.10341
ltibia 43.5176
lfoot 17.934 2.78148
ltoes 2.50669
95
root -2.98699 15.9554 -39.1921 3.23712 -15.8989 -9.23555
lowerback 8.54751 1.07891 5.66504
upperback -0.821164 2.21129 3.46179
thorax -5.59331 0.965506 0.148138
lowerneck -1.12122 -6.48401 -8.30927
upperneck 12.8447 -9.01058 5.46895
head 4.65894 -4.56408 2.60012
rclavicle -3.02588e-014 -7.55382e-015
rhumerus -36.4069 7.83546 -80.2867
rradius 34.6959
rwrist 2.78055
rhand -14.8635 -35.1167
rfingers 7.12502
rthumb 11.2964 -64.7925
lclavicle -3.02588e-014 -7.55382e-015
lhumerus -30.4208 -1.74292 83.0215
lradius 37.5895
lwrist -8.94107
lhand -26.2289 18.5982
lfingers 7.12502
lthumb 0.324674 48.5777
rfemur -3.38399 -2.84275 27.7761
rtibia 41.8557
rfoot -25.3222 -25.8546
rtoes -20.9868
lfemur -48.3018 5.76185 2.45694
ltibia 42.6701
lfoot 19.139 2.70699
ltoes 3.15603
96
root -2.97995 15.9374 -39.1354 3.16988 -16.0021 -9.34948
lowerback 8.53863 1.10125 5.78321
upperback -0.814114 2.25528 3.52818
thorax -5.57801 0.984794 0.146516
lowerneck -1.01917 -6.16195 -8.17377
upperneck 12.8459 -8.57448 5.35569
head 4.59982 -4.35142 2.57461
rclavicle -6.2406e-014 -4.63168e-014
rhumerus -36.4916 7.84949 -80.1918
rradius 34.9924
rwrist 2.6025
rhand -14.7134 -35.4919
rfingers 7.12502
rthumb 11.4411 -65.1597
lclavicle -6.2406e-014 -4.63168e-014
lhumerus -30.7657 -1.71689 83.0248
lradius 37.7303
lwrist -8.50184
lhand -26.4435 17.8235
lfingers 7.12502
lthumb 0.117383 47.8032
rfemur -3.03684 -2.73425 27.7937
rtibia 41.7858
rfoot -25.2271 -26.0996
rtoes -21.7162
lfemur -48.2174 5.61581 2.8199
ltibia 41.8906
lfoot 19.9536 2.6665
ltoes 4.27395
97
root -2.9727 15.9191 -39.0772 3.17099 -16.0043 -9.33529
lowerback 8.41137 1.12522 5.80798
upperback -0.835228 2.28084 3.54359
thorax -5.52692 0.997874 0.148338
lowerneck -0.963603 -5.88162 -7.98487
upperneck 12.8536 -8.19356 5.236
head 4.55292 -4.16266 2.53263
rclavicle 2.31708e-015 1.11319e-014
rhumerus -36.6929 7.78478 -80.0848
rradius 35.3998
rwrist 2.29324
rhand -14.8595 -35.7216
rfingers 7.12502
rthumb 11.3003 -65.3972
lclavicle 2.31708e-015 1.11319e-014
lhumerus -31.0477 -1.73952 83.0324
lradius 37.8573
lwrist -8.07827
lhand -25.8525 19.0211
lfingers 7.12502
lthumb 0.688238 48.9998
rfemur -2.81918 -2.7204 27.6817
rtibia 41.7752
rfoot -25.2895 -26.2937
rtoes -21.6307
lfemur -48.2796 5.42253 2.99223
ltibia 41.137
lfoot 20.5477 2.7701
ltoes 4.97811
